<svg width="180" height="68" viewBox="0 0 180 68" fill="none" xmlns="http://www.w3.org/2000/svg">
<g clip-path="url(#clip0_1351_4347)">
<rect width="68" height="68" rx="16" fill="#D0F6FF"/>
<g filter="url(#filter0_f_1351_4347)">
<path d="M74.203 14.2909C71.1851 21.0498 71.133 40.8695 65.503 43.52C60.2658 45.9855 47.2832 25.4074 42.1603 23.12C31.5301 18.3736 29.8826 10.149 35.7079 -2.89743C41.5332 -15.9438 54.8729 -22.6723 65.503 -17.9259C76.1332 -13.1795 80.0283 1.24446 74.203 14.2909Z" fill="#A6FFA5"/>
</g>
<g filter="url(#filter1_f_1351_4347)">
<path d="M48.8913 77.3596C45.4207 85.1325 28.7943 85.2661 11.7553 77.658C-5.2837 70.05 -16.2831 57.5814 -12.8125 49.8086C-9.34185 42.0358 4.75978 11.9 20.7398 53.0398C41.8198 58.82 52.3619 69.5868 48.8913 77.3596Z" fill="#A6FFA5"/>
</g>
<g filter="url(#filter2_diiii_1351_4347)">
<path d="M15.3003 28.6462C15.3003 37.7399 22.8166 42.5858 28.3187 46.9232C30.2603 48.4538 32.1303 49.8949 34.0003 49.8949C35.8703 49.8949 37.7403 48.4538 39.6819 46.9232C45.184 42.5858 52.7003 37.7399 52.7003 28.6462C52.7003 19.5525 42.415 13.1035 34.0003 21.846C25.5856 13.1035 15.3003 19.5525 15.3003 28.6462Z" fill="url(#paint0_linear_1351_4347)"/>
</g>
</g>
<path d="M86.4198 45C86.1958 45 86.0558 44.9067 85.9998 44.72L80.9318 30.916C80.9131 30.8787 80.9038 30.832 80.9038 30.776C80.9038 30.7013 80.9318 30.636 80.9878 30.58C81.0624 30.524 81.1464 30.496 81.2398 30.496H84.7398C84.9451 30.496 85.0758 30.5987 85.1318 30.804L87.5958 38.812L90.9838 30.776C91.0771 30.5893 91.2171 30.496 91.4038 30.496H93.2518C93.4571 30.496 93.5971 30.5893 93.6718 30.776L96.8918 38.616L99.4958 30.804C99.5518 30.5987 99.6918 30.496 99.9158 30.496H103.108C103.238 30.496 103.332 30.5333 103.388 30.608C103.444 30.6827 103.453 30.7853 103.416 30.916L98.3478 44.72C98.2918 44.9067 98.1518 45 97.9278 45H96.0798C95.8744 45 95.7344 44.9067 95.6598 44.72L92.2718 36.432L88.6878 44.72C88.5944 44.9067 88.4544 45 88.2678 45H86.4198ZM112.185 45.28C110.655 45.28 109.311 44.9627 108.153 44.328C106.996 43.6747 106.1 42.7787 105.465 41.64C104.831 40.5013 104.513 39.204 104.513 37.748C104.513 36.292 104.831 34.9947 105.465 33.856C106.1 32.7173 106.996 31.8307 108.153 31.196C109.311 30.5427 110.655 30.216 112.185 30.216C113.716 30.216 115.06 30.5427 116.217 31.196C117.375 31.8307 118.271 32.7173 118.905 33.856C119.54 34.9947 119.857 36.292 119.857 37.748C119.857 39.204 119.54 40.5013 118.905 41.64C118.271 42.7787 117.375 43.6747 116.217 44.328C115.06 44.9627 113.716 45.28 112.185 45.28ZM112.185 41.976C113.343 41.976 114.285 41.584 115.013 40.8C115.741 40.016 116.105 38.9987 116.105 37.748C116.105 36.4973 115.741 35.48 115.013 34.696C114.285 33.912 113.343 33.52 112.185 33.52C111.028 33.52 110.085 33.912 109.357 34.696C108.629 35.48 108.265 36.4973 108.265 37.748C108.265 38.9987 108.629 40.016 109.357 40.8C110.085 41.584 111.028 41.976 112.185 41.976ZM129.658 45.28C128.127 45.28 126.783 44.9627 125.626 44.328C124.469 43.6747 123.573 42.7787 122.938 41.64C122.303 40.5013 121.986 39.204 121.986 37.748C121.986 36.292 122.303 34.9947 122.938 33.856C123.573 32.7173 124.469 31.8307 125.626 31.196C126.783 30.5427 128.127 30.216 129.658 30.216C131.189 30.216 132.533 30.5427 133.69 31.196C134.847 31.8307 135.743 32.7173 136.378 33.856C137.013 34.9947 137.33 36.292 137.33 37.748C137.33 39.204 137.013 40.5013 136.378 41.64C135.743 42.7787 134.847 43.6747 133.69 44.328C132.533 44.9627 131.189 45.28 129.658 45.28ZM129.658 41.976C130.815 41.976 131.758 41.584 132.486 40.8C133.214 40.016 133.578 38.9987 133.578 37.748C133.578 36.4973 133.214 35.48 132.486 34.696C131.758 33.912 130.815 33.52 129.658 33.52C128.501 33.52 127.558 33.912 126.83 34.696C126.102 35.48 125.738 36.4973 125.738 37.748C125.738 38.9987 126.102 40.016 126.83 40.8C127.558 41.584 128.501 41.976 129.658 41.976ZM142.119 27.92C141.503 27.92 140.989 27.7333 140.579 27.36C140.187 26.9867 139.991 26.5013 139.991 25.904C139.991 25.3067 140.187 24.8213 140.579 24.448C140.989 24.0747 141.503 23.888 142.119 23.888C142.735 23.888 143.239 24.0747 143.631 24.448C144.041 24.8213 144.247 25.3067 144.247 25.904C144.247 26.5013 144.041 26.9867 143.631 27.36C143.239 27.7333 142.735 27.92 142.119 27.92ZM140.663 45C140.42 45 140.299 44.8787 140.299 44.636V30.86C140.299 30.6173 140.42 30.496 140.663 30.496H143.575C143.817 30.496 143.939 30.6173 143.939 30.86V44.636C143.939 44.8787 143.817 45 143.575 45H140.663ZM148.1 45C147.857 45 147.736 44.8787 147.736 44.636V30.86C147.736 30.6173 147.857 30.496 148.1 30.496H150.732C150.993 30.496 151.124 30.6173 151.124 30.86L151.208 32.596C151.712 31.8307 152.375 31.2427 153.196 30.832C154.017 30.4213 154.885 30.216 155.8 30.216C156.883 30.216 157.816 30.4493 158.6 30.916C159.384 31.364 159.972 32.0173 160.364 32.876C160.887 32.0173 161.587 31.364 162.464 30.916C163.341 30.4493 164.293 30.216 165.32 30.216C166.907 30.216 168.148 30.692 169.044 31.644C169.959 32.596 170.416 33.9027 170.416 35.564V44.636C170.416 44.8787 170.295 45 170.052 45H167.14C166.897 45 166.776 44.8787 166.776 44.636V37.048C166.776 34.696 165.917 33.52 164.2 33.52C163.285 33.52 162.501 33.8747 161.848 34.584C161.213 35.2933 160.896 36.3013 160.896 37.608V44.636C160.896 44.8787 160.775 45 160.532 45H157.62C157.377 45 157.256 44.8787 157.256 44.636V37.048C157.256 34.696 156.397 33.52 154.68 33.52C153.765 33.52 152.981 33.8747 152.328 34.584C151.693 35.2933 151.376 36.3013 151.376 37.608V44.636C151.376 44.8787 151.255 45 151.012 45H148.1ZM175.943 27.92C175.327 27.92 174.813 27.7333 174.403 27.36C174.011 26.9867 173.815 26.5013 173.815 25.904C173.815 25.3067 174.011 24.8213 174.403 24.448C174.813 24.0747 175.327 23.888 175.943 23.888C176.559 23.888 177.063 24.0747 177.455 24.448C177.865 24.8213 178.071 25.3067 178.071 25.904C178.071 26.5013 177.865 26.9867 177.455 27.36C177.063 27.7333 176.559 27.92 175.943 27.92ZM174.487 45C174.244 45 174.123 44.8787 174.123 44.636V30.86C174.123 30.6173 174.244 30.496 174.487 30.496H177.399C177.641 30.496 177.763 30.6173 177.763 30.86V44.636C177.763 44.8787 177.641 45 177.399 45H174.487Z" fill="black"/>
<defs>
<filter id="filter0_f_1351_4347" x="14.7065" y="-37.1276" width="79.8812" height="98.5322" filterUnits="userSpaceOnUse" color-interpolation-filters="sRGB">
<feFlood flood-opacity="0" result="BackgroundImageFix"/>
<feBlend mode="normal" in="SourceGraphic" in2="BackgroundImageFix" result="shape"/>
<feGaussianBlur stdDeviation="8.84003" result="effect1_foregroundBlur_1351_4347"/>
</filter>
<filter id="filter1_f_1351_4347" x="-33.1722" y="12.1537" width="102.435" height="90.8442" filterUnits="userSpaceOnUse" color-interpolation-filters="sRGB">
<feFlood flood-opacity="0" result="BackgroundImageFix"/>
<feBlend mode="normal" in="SourceGraphic" in2="BackgroundImageFix" result="shape"/>
<feGaussianBlur stdDeviation="9.86003" result="effect1_foregroundBlur_1351_4347"/>
</filter>
<filter id="filter2_diiii_1351_4347" x="13.9403" y="16.3426" width="40.12" height="34.9123" filterUnits="userSpaceOnUse" color-interpolation-filters="sRGB">
<feFlood flood-opacity="0" result="BackgroundImageFix"/>
<feColorMatrix in="SourceAlpha" type="matrix" values="0 0 0 0 0 0 0 0 0 0 0 0 0 0 0 0 0 0 127 0" result="hardAlpha"/>
<feOffset dx="-0.680003" dy="0.680003"/>
<feGaussianBlur stdDeviation="0.340001"/>
<feComposite in2="hardAlpha" operator="out"/>
<feColorMatrix type="matrix" values="0 0 0 0 0.743446 0 0 0 0 0.109168 0 0 0 0 0.315309 0 0 0 0.15 0"/>
<feBlend mode="normal" in2="BackgroundImageFix" result="effect1_dropShadow_1351_4347"/>
<feBlend mode="normal" in="SourceGraphic" in2="effect1_dropShadow_1351_4347" result="shape"/>
<feColorMatrix in="SourceAlpha" type="matrix" values="0 0 0 0 0 0 0 0 0 0 0 0 0 0 0 0 0 0 127 0" result="hardAlpha"/>
<feOffset dx="-0.680003" dy="0.680003"/>
<feGaussianBlur stdDeviation="2.04001"/>
<feComposite in2="hardAlpha" operator="arithmetic" k2="-1" k3="1"/>
<feColorMatrix type="matrix" values="0 0 0 0 1 0 0 0 0 0.556509 0 0 0 0 0.703449 0 0 0 1 0"/>
<feBlend mode="normal" in2="shape" result="effect2_innerShadow_1351_4347"/>
<feColorMatrix in="SourceAlpha" type="matrix" values="0 0 0 0 0 0 0 0 0 0 0 0 0 0 0 0 0 0 127 0" result="hardAlpha"/>
<feOffset dx="-0.680003" dy="0.680003"/>
<feGaussianBlur stdDeviation="0.680003"/>
<feComposite in2="hardAlpha" operator="arithmetic" k2="-1" k3="1"/>
<feColorMatrix type="matrix" values="0 0 0 0 1 0 0 0 0 1 0 0 0 0 1 0 0 0 0.19 0"/>
<feBlend mode="normal" in2="effect2_innerShadow_1351_4347" result="effect3_innerShadow_1351_4347"/>
<feColorMatrix in="SourceAlpha" type="matrix" values="0 0 0 0 0 0 0 0 0 0 0 0 0 0 0 0 0 0 127 0" result="hardAlpha"/>
<feOffset dx="1.36001" dy="-1.36001"/>
<feGaussianBlur stdDeviation="1.36001"/>
<feComposite in2="hardAlpha" operator="arithmetic" k2="-1" k3="1"/>
<feColorMatrix type="matrix" values="0 0 0 0 0.9181 0 0 0 0 0.147402 0 0 0 0 0.42011 0 0 0 0.6 0"/>
<feBlend mode="normal" in2="effect3_innerShadow_1351_4347" result="effect4_innerShadow_1351_4347"/>
<feColorMatrix in="SourceAlpha" type="matrix" values="0 0 0 0 0 0 0 0 0 0 0 0 0 0 0 0 0 0 127 0" result="hardAlpha"/>
<feOffset dx="0.680003" dy="-0.680003"/>
<feGaussianBlur stdDeviation="0.340001"/>
<feComposite in2="hardAlpha" operator="arithmetic" k2="-1" k3="1"/>
<feColorMatrix type="matrix" values="0 0 0 0 0.698505 0 0 0 0 0 0 0 0 0 0.247163 0 0 0 0.19 0"/>
<feBlend mode="normal" in2="effect4_innerShadow_1351_4347" result="effect5_innerShadow_1351_4347"/>
</filter>
<linearGradient id="paint0_linear_1351_4347" x1="59.1603" y1="10.8797" x2="19.7203" y2="48.2797" gradientUnits="userSpaceOnUse">
<stop offset="0.084937" stop-color="#FF196E"/>
<stop offset="0.875489" stop-color="#FF759F"/>
</linearGradient>
<clipPath id="clip0_1351_4347">
<rect width="68" height="68" rx="16" fill="white"/>
</clipPath>
</defs>
</svg>
