<svg width="64" height="84" viewBox="0 0 64 84" fill="none" xmlns="http://www.w3.org/2000/svg">
<g clip-path="url(#clip0_1453_13)">
<rect x="4" width="56" height="56" rx="28" fill="#D0F6FF"/>
<g filter="url(#filter0_f_1453_13)">
<path d="M65.1081 11.769C62.6228 17.3352 62.5799 33.6573 57.9435 35.84C53.6304 37.8705 42.9389 20.9238 38.72 19.04C29.9658 15.1312 28.609 8.35802 33.4063 -2.38607C38.2036 -13.1302 49.1892 -18.6712 57.9435 -14.7624C66.6977 -10.8536 69.9054 1.0249 65.1081 11.769Z" fill="#A6FFA5"/>
</g>
<g filter="url(#filter1_f_1453_13)">
<path d="M44.2634 63.708C41.4053 70.1091 27.713 70.2191 13.6809 63.9537C-0.351246 57.6883 -9.40955 47.42 -6.5514 41.0189C-3.69326 34.6177 7.91986 9.80001 21.0799 43.6799C38.4399 48.44 47.1216 57.3068 44.2634 63.708Z" fill="#A6FFA5"/>
</g>
<g filter="url(#filter2_diiii_1453_13)">
<path d="M16.6001 23.5909C16.6001 31.0798 22.79 35.0705 27.3212 38.6425C28.9201 39.9029 30.4601 41.0897 32.0001 41.0897C33.5401 41.0897 35.0801 39.9029 36.679 38.6425C41.2102 35.0705 47.4001 31.0798 47.4001 23.5909C47.4001 16.1019 38.9299 10.7909 32.0001 17.9907C25.0703 10.7909 16.6001 16.1019 16.6001 23.5909Z" fill="url(#paint0_linear_1453_13)"/>
</g>
</g>
<path d="M3.98413 82C3.84013 82 3.75013 81.94 3.71413 81.82L0.456125 72.946C0.444125 72.922 0.438125 72.892 0.438125 72.856C0.438125 72.808 0.456125 72.766 0.492125 72.73C0.540125 72.694 0.594125 72.676 0.654125 72.676H2.90413C3.03613 72.676 3.12013 72.742 3.15613 72.874L4.74013 78.022L6.91813 72.856C6.97813 72.736 7.06813 72.676 7.18813 72.676H8.37613C8.50813 72.676 8.59813 72.736 8.64613 72.856L10.7161 77.896L12.3901 72.874C12.4261 72.742 12.5161 72.676 12.6601 72.676H14.7121C14.7961 72.676 14.8561 72.7 14.8921 72.748C14.9281 72.796 14.9341 72.862 14.9101 72.946L11.6521 81.82C11.6161 81.94 11.5261 82 11.3821 82H10.1941C10.0621 82 9.97213 81.94 9.92413 81.82L7.74613 76.492L5.44213 81.82C5.38213 81.94 5.29213 82 5.17213 82H3.98413ZM20.5476 82.18C19.5636 82.18 18.6996 81.976 17.9556 81.568C17.2116 81.148 16.6356 80.572 16.2276 79.84C15.8196 79.108 15.6156 78.274 15.6156 77.338C15.6156 76.402 15.8196 75.568 16.2276 74.836C16.6356 74.104 17.2116 73.534 17.9556 73.126C18.6996 72.706 19.5636 72.496 20.5476 72.496C21.5316 72.496 22.3956 72.706 23.1396 73.126C23.8836 73.534 24.4596 74.104 24.8676 74.836C25.2756 75.568 25.4796 76.402 25.4796 77.338C25.4796 78.274 25.2756 79.108 24.8676 79.84C24.4596 80.572 23.8836 81.148 23.1396 81.568C22.3956 81.976 21.5316 82.18 20.5476 82.18ZM20.5476 80.056C21.2916 80.056 21.8976 79.804 22.3656 79.3C22.8336 78.796 23.0676 78.142 23.0676 77.338C23.0676 76.534 22.8336 75.88 22.3656 75.376C21.8976 74.872 21.2916 74.62 20.5476 74.62C19.8036 74.62 19.1976 74.872 18.7296 75.376C18.2616 75.88 18.0276 76.534 18.0276 77.338C18.0276 78.142 18.2616 78.796 18.7296 79.3C19.1976 79.804 19.8036 80.056 20.5476 80.056ZM31.7801 82.18C30.7961 82.18 29.9321 81.976 29.1881 81.568C28.4441 81.148 27.8681 80.572 27.4601 79.84C27.0521 79.108 26.8481 78.274 26.8481 77.338C26.8481 76.402 27.0521 75.568 27.4601 74.836C27.8681 74.104 28.4441 73.534 29.1881 73.126C29.9321 72.706 30.7961 72.496 31.7801 72.496C32.7641 72.496 33.6281 72.706 34.3721 73.126C35.1161 73.534 35.6921 74.104 36.1001 74.836C36.5081 75.568 36.7121 76.402 36.7121 77.338C36.7121 78.274 36.5081 79.108 36.1001 79.84C35.6921 80.572 35.1161 81.148 34.3721 81.568C33.6281 81.976 32.7641 82.18 31.7801 82.18ZM31.7801 80.056C32.5241 80.056 33.1301 79.804 33.5981 79.3C34.0661 78.796 34.3001 78.142 34.3001 77.338C34.3001 76.534 34.0661 75.88 33.5981 75.376C33.1301 74.872 32.5241 74.62 31.7801 74.62C31.0361 74.62 30.4301 74.872 29.9621 75.376C29.4941 75.88 29.2601 76.534 29.2601 77.338C29.2601 78.142 29.4941 78.796 29.9621 79.3C30.4301 79.804 31.0361 80.056 31.7801 80.056ZM39.7905 71.02C39.3945 71.02 39.0645 70.9 38.8005 70.66C38.5485 70.42 38.4225 70.108 38.4225 69.724C38.4225 69.34 38.5485 69.028 38.8005 68.788C39.0645 68.548 39.3945 68.428 39.7905 68.428C40.1865 68.428 40.5105 68.548 40.7625 68.788C41.0265 69.028 41.1585 69.34 41.1585 69.724C41.1585 70.108 41.0265 70.42 40.7625 70.66C40.5105 70.9 40.1865 71.02 39.7905 71.02ZM38.8545 82C38.6985 82 38.6205 81.922 38.6205 81.766V72.91C38.6205 72.754 38.6985 72.676 38.8545 72.676H40.7265C40.8825 72.676 40.9605 72.754 40.9605 72.91V81.766C40.9605 81.922 40.8825 82 40.7265 82H38.8545ZM43.6357 82C43.4797 82 43.4017 81.922 43.4017 81.766V72.91C43.4017 72.754 43.4797 72.676 43.6357 72.676H45.3277C45.4957 72.676 45.5797 72.754 45.5797 72.91L45.6337 74.026C45.9577 73.534 46.3837 73.156 46.9117 72.892C47.4397 72.628 47.9977 72.496 48.5857 72.496C49.2817 72.496 49.8817 72.646 50.3857 72.946C50.8897 73.234 51.2677 73.654 51.5197 74.206C51.8557 73.654 52.3057 73.234 52.8697 72.946C53.4337 72.646 54.0457 72.496 54.7057 72.496C55.7257 72.496 56.5237 72.802 57.0997 73.414C57.6877 74.026 57.9817 74.866 57.9817 75.934V81.766C57.9817 81.922 57.9037 82 57.7477 82H55.8757C55.7197 82 55.6417 81.922 55.6417 81.766V76.888C55.6417 75.376 55.0897 74.62 53.9857 74.62C53.3977 74.62 52.8937 74.848 52.4737 75.304C52.0657 75.76 51.8617 76.408 51.8617 77.248V81.766C51.8617 81.922 51.7837 82 51.6277 82H49.7557C49.5997 82 49.5217 81.922 49.5217 81.766V76.888C49.5217 75.376 48.9697 74.62 47.8657 74.62C47.2777 74.62 46.7737 74.848 46.3537 75.304C45.9457 75.76 45.7417 76.408 45.7417 77.248V81.766C45.7417 81.922 45.6637 82 45.5077 82H43.6357ZM61.5346 71.02C61.1386 71.02 60.8086 70.9 60.5446 70.66C60.2926 70.42 60.1666 70.108 60.1666 69.724C60.1666 69.34 60.2926 69.028 60.5446 68.788C60.8086 68.548 61.1386 68.428 61.5346 68.428C61.9306 68.428 62.2546 68.548 62.5066 68.788C62.7706 69.028 62.9026 69.34 62.9026 69.724C62.9026 70.108 62.7706 70.42 62.5066 70.66C62.2546 70.9 61.9306 71.02 61.5346 71.02ZM60.5986 82C60.4426 82 60.3646 81.922 60.3646 81.766V72.91C60.3646 72.754 60.4426 72.676 60.5986 72.676H62.4706C62.6266 72.676 62.7046 72.754 62.7046 72.91V81.766C62.7046 81.922 62.6266 82 62.4706 82H60.5986Z" fill="black"/>
<defs>
<filter id="filter0_f_1453_13" x="16.1111" y="-30.5755" width="65.7843" height="81.1441" filterUnits="userSpaceOnUse" color-interpolation-filters="sRGB">
<feFlood flood-opacity="0" result="BackgroundImageFix"/>
<feBlend mode="normal" in="SourceGraphic" in2="BackgroundImageFix" result="shape"/>
<feGaussianBlur stdDeviation="7.28" result="effect1_foregroundBlur_1453_13"/>
</filter>
<filter id="filter1_f_1453_13" x="-23.3182" y="10.009" width="84.3582" height="74.8127" filterUnits="userSpaceOnUse" color-interpolation-filters="sRGB">
<feFlood flood-opacity="0" result="BackgroundImageFix"/>
<feBlend mode="normal" in="SourceGraphic" in2="BackgroundImageFix" result="shape"/>
<feGaussianBlur stdDeviation="8.12" result="effect1_foregroundBlur_1453_13"/>
</filter>
<filter id="filter2_diiii_1453_13" x="15.4801" y="13.4585" width="33.04" height="28.7512" filterUnits="userSpaceOnUse" color-interpolation-filters="sRGB">
<feFlood flood-opacity="0" result="BackgroundImageFix"/>
<feColorMatrix in="SourceAlpha" type="matrix" values="0 0 0 0 0 0 0 0 0 0 0 0 0 0 0 0 0 0 127 0" result="hardAlpha"/>
<feOffset dx="-0.56" dy="0.56"/>
<feGaussianBlur stdDeviation="0.28"/>
<feComposite in2="hardAlpha" operator="out"/>
<feColorMatrix type="matrix" values="0 0 0 0 0.743446 0 0 0 0 0.109168 0 0 0 0 0.315309 0 0 0 0.15 0"/>
<feBlend mode="normal" in2="BackgroundImageFix" result="effect1_dropShadow_1453_13"/>
<feBlend mode="normal" in="SourceGraphic" in2="effect1_dropShadow_1453_13" result="shape"/>
<feColorMatrix in="SourceAlpha" type="matrix" values="0 0 0 0 0 0 0 0 0 0 0 0 0 0 0 0 0 0 127 0" result="hardAlpha"/>
<feOffset dx="-0.56" dy="0.56"/>
<feGaussianBlur stdDeviation="1.68"/>
<feComposite in2="hardAlpha" operator="arithmetic" k2="-1" k3="1"/>
<feColorMatrix type="matrix" values="0 0 0 0 1 0 0 0 0 0.556509 0 0 0 0 0.703449 0 0 0 1 0"/>
<feBlend mode="normal" in2="shape" result="effect2_innerShadow_1453_13"/>
<feColorMatrix in="SourceAlpha" type="matrix" values="0 0 0 0 0 0 0 0 0 0 0 0 0 0 0 0 0 0 127 0" result="hardAlpha"/>
<feOffset dx="-0.56" dy="0.56"/>
<feGaussianBlur stdDeviation="0.56"/>
<feComposite in2="hardAlpha" operator="arithmetic" k2="-1" k3="1"/>
<feColorMatrix type="matrix" values="0 0 0 0 1 0 0 0 0 1 0 0 0 0 1 0 0 0 0.19 0"/>
<feBlend mode="normal" in2="effect2_innerShadow_1453_13" result="effect3_innerShadow_1453_13"/>
<feColorMatrix in="SourceAlpha" type="matrix" values="0 0 0 0 0 0 0 0 0 0 0 0 0 0 0 0 0 0 127 0" result="hardAlpha"/>
<feOffset dx="1.12" dy="-1.12"/>
<feGaussianBlur stdDeviation="1.12"/>
<feComposite in2="hardAlpha" operator="arithmetic" k2="-1" k3="1"/>
<feColorMatrix type="matrix" values="0 0 0 0 0.9181 0 0 0 0 0.147402 0 0 0 0 0.42011 0 0 0 0.6 0"/>
<feBlend mode="normal" in2="effect3_innerShadow_1453_13" result="effect4_innerShadow_1453_13"/>
<feColorMatrix in="SourceAlpha" type="matrix" values="0 0 0 0 0 0 0 0 0 0 0 0 0 0 0 0 0 0 127 0" result="hardAlpha"/>
<feOffset dx="0.56" dy="-0.56"/>
<feGaussianBlur stdDeviation="0.28"/>
<feComposite in2="hardAlpha" operator="arithmetic" k2="-1" k3="1"/>
<feColorMatrix type="matrix" values="0 0 0 0 0.698505 0 0 0 0 0 0 0 0 0 0.247163 0 0 0 0.19 0"/>
<feBlend mode="normal" in2="effect4_innerShadow_1453_13" result="effect5_innerShadow_1453_13"/>
</filter>
<linearGradient id="paint0_linear_1453_13" x1="52.7201" y1="8.95962" x2="20.2401" y2="39.7596" gradientUnits="userSpaceOnUse">
<stop offset="0.084937" stop-color="#FF196E"/>
<stop offset="0.875489" stop-color="#FF759F"/>
</linearGradient>
<clipPath id="clip0_1453_13">
<rect x="4" width="56" height="56" rx="28" fill="white"/>
</clipPath>
</defs>
</svg>
